<svg xmlns="http://www.w3.org/2000/svg" width="514" height="143"><path d="M39.36 39.58h86.6v21.28h-86.6zm0 42.55h86.6v21.29h-86.6z" fill="#b7bbbe"/><path d="M186.84 54.82c-1.82-8.92-3.73-11.95-13.95-11.95-4.34 0-7.89 1.21-10.31 3.29-2.08 1.73-3.03 3.9-3.03 6.58 0 2.42 1.3 5.38 2.95 6.94 2.24 2.16 5.54 4.07 10.99 6.84 6.76 3.46 11.87 5.46 15.59 9.7 1.82 2.09 3.64 5.98 3.64 10.23 0 4.51-1.56 8.58-4.86 11.52-3.64 3.29-9.36 5.46-17.07 5.46-5.02 0-11.17-1.13-16.19-2.95-.78-5.38-1.74-9.01-2.86-12.82l3.03-.78c2.77 10.65 7.62 13.26 16.8 13.26 3.98 0 7.71-1.13 10.4-3.21 2.68-2.08 4.42-5.11 4.42-9.01 0-3.46-.96-5.55-2.77-7.71-2.77-3.29-7.45-5.37-12.47-7.87-5.29-2.69-12.56-6.59-15.07-10.14-1.56-2.25-2.6-5.11-2.6-8.32 0-3.72 1.55-7.44 5.2-10.22 3.11-2.43 7.87-4.07 14.64-4.07 5.54 0 10.04.7 14.47 2.42.51 3.55 1.3 8.23 2.08 12.13l-3.03.68zm19.14 27.81c0-6.67 1.21-11 3.55-14.03 2.07-2.42 4.94-3.64 8.4-3.64 3.64 0 6.58 1.22 8.58 3.64 2.34 3.03 3.54 7.36 3.54 14.03 0 7.02-1.47 11.43-3.63 14.21-1.99 2.25-4.76 3.64-8.4 3.64-3.63 0-6.41-1.39-8.39-3.64-2.18-2.78-3.65-7.19-3.65-14.21zm-6.24-.09c0 7.88 2.08 13.08 5.45 16.29 3.48 3.04 7.63 4.34 12.82 4.34 5.45 0 9.71-1.39 13.17-4.51 3.29-3.21 5.28-8.31 5.28-16.11 0-6.84-1.9-12.13-5.28-15.5-3.38-3.21-7.37-4.77-13.17-4.77-5.54 0-9.52 1.56-12.9 4.68-3.47 3.37-5.37 8.74-5.37 15.58zM248.05 66h-6.41v-2.77h6.41v-5.46c0-5.28 1.3-9.27 4.16-12.22 2.07-1.99 5.01-3.37 8.83-3.37 3.55 0 5.63.95 7.36 2.07 2.51 1.65 3.73 3.81 3.73 5.37 0 1.74-.87 2.69-2.43 2.69-2.08 0-2.85-1.82-3.81-3.73s-2.08-3.72-4.77-3.72c-1.73 0-3.12.61-4.33 1.91-1.73 2.08-2.76 5.2-2.76 11.35v5.11h11V66h-11v28.32c0 5.2.35 5.71 6.84 5.71v2.17h-19.32v-2.17c6.06 0 6.5-.6 6.5-5.89V66z"/><path d="M268.76 64c5.46-.52 9.2-2.6 10.32-11.69h2.16v10.92h9.18V66h-9.18v27.98c0 4.07 1.21 6.15 4.24 6.15 2 0 3.64-.69 5.37-1.99l1.39 1.9c-2.25 1.99-4.94 3.13-8.49 3.13-4.41 0-8.48-2.09-8.48-8.84V66h-6.5v-2zm41.73-16.89c0-2.33.35-3.03 2.6-3.03h8.23c6.07 0 9.96 1.39 12.39 3.38 1.91 1.56 3.38 4.94 3.38 7.89 0 4.15-1.47 7.19-3.98 9.27-3.13 2.6-7.97 3.73-13.95 3.73h-8.66V47.11zm-6.41 46c0 6.14-.52 6.58-7.01 6.58v2.51h28.24c9.01 0 14.12-2.08 17.5-5.37 3.47-3.29 4.85-7.62 4.85-11.95 0-4.76-2.43-8.23-5.55-10.65-3.72-2.86-8.74-4.33-14.37-4.51v-.18c5.46-.78 9.09-2.51 11.69-4.84 3.2-2.86 4.33-6.68 4.33-9.97 0-4.42-2.25-7.88-5.54-10.13-4.68-3.13-9.88-3.82-17.85-3.82h-23.3v2.51c6.49 0 7.01.43 7.01 6.67v43.15zm6.41-21.48h10.75c7.1 0 11.87 1.22 14.9 3.55 3.11 2.34 4.76 5.71 4.76 9.52 0 4.51-1.3 7.72-3.38 9.88-2.95 3.03-6.93 4.33-13.08 4.33H313.7c-2.69 0-3.21-.61-3.21-4.24V71.63zm65.97 23.74c-2.17 2.16-5.11 4.5-9.36 4.5-2.6 0-4.41-.86-5.72-2.08-1.3-1.3-1.9-3.2-1.9-5.46 0-3.98 2.42-6.23 5.8-8.05 3.21-1.99 7.46-3.21 11.18-4.24v15.33zm5.98-21.06c0-3.81-.61-6.15-2.86-8.66-2.17-2.42-5.2-3.38-10.4-3.38-4.59 0-7.62 1.12-9.88 2.43-2.77 1.64-4.5 3.98-4.5 6.06 0 1.31.77 2.51 2.42 2.51 1.83 0 2.6-.86 3.03-2.08.78-1.91 1.57-3.38 2.7-4.24 1.56-1.22 3.29-1.99 5.88-1.99 2.86 0 4.94.86 6.23 2.6 1.13 1.47 1.39 4.07 1.39 6.06v3.73l-5.11 1.22c-5.55 1.21-9.87 2.94-12.82 4.94-3.81 2.51-5.37 5.63-5.37 9.62 0 3.29 1.38 5.8 3.46 7.45 2.25 1.82 5.2 2.6 7.97 2.6 5.72 0 9.18-1.99 12.12-4.77h.26c.78 2.86 2.6 4.42 5.63 4.42 2.26 0 3.81-.52 5.29-1.21l-.52-1.99c-.69.43-1.48.6-2.33.6-1.74 0-2.6-1.73-2.6-5.63V74.31zm44.09 20.19c0 4.85.35 5.54 4.24 5.54v2.17h-14.64v-2.17c4.16 0 4.42-.51 4.42-5.71V75c0-3.37-.43-6.15-2.08-7.88-1.13-1.12-2.69-1.73-5.02-1.73-3.64 0-7.54 3.29-11.01 8.05v20.88c0 5.2.08 5.71 4.16 5.71v2.17h-15.15v-2.17c4.67 0 5.02-.51 5.02-5.71V73.27c0-5.02-.43-5.63-5.02-5.54v-1.9c3.81-.61 6.75-1.48 9.61-3.55l.87.52.34 6.67h.18c3.47-4.41 7.88-7.19 12.65-7.19 3.73 0 6.41.96 8.31 2.77 2 1.91 3.12 5.03 3.12 9.61V94.5zm20.3-13.61l12.39-12.04c2.34-2.16 2.95-3.46-1.21-3.46v-2.16h12.82v2.16c-2.51.09-3.9.68-5.89 2.6l-9.1 8.66 13.25 20.1c1.91 3.03 3.81 3.38 6.41 3.29v2.17h-9.88l-14.11-21.83-4.86 4.77v9.18c0 5.02.17 5.71 4.94 5.71v2.17h-16.11v-2.17c5.02 0 5.19-.69 5.19-5.71V53.26c0-5.02-.51-5.62-5.19-5.62v-1.91c4.24-.61 7.19-1.56 10.4-3.55l.78.51v38.2h.17z"/></svg>